<svg xmlns="http://www.w3.org/2000/svg" xmlns:xlink="http://www.w3.org/1999/xlink"><defs><style>
    .sprite-symbol-usage {display: none;}
    .sprite-symbol-usage:target {display: inline;}
  </style><symbol viewBox="0 0 18 18" fill="currentcolor" id="+"><path d="M8.047 18V0h1.906v18H8.047ZM0 9.957v-1.87h18v1.87H0Z" /></symbol><symbol viewBox="0 0 18 2" fill="currentcolor" id="-"><path d="M0 1.957V.087h18v1.87H0Z" /></symbol><symbol viewBox="0 0 27 11" fill="currentcolor" id="alphabet"><path d="M8.415 8.75H3.54L2.61 11H.12L4.8.5h2.4L11.895 11h-2.55l-.93-2.25ZM7.65 6.905l-1.665-4.02-1.665 4.02h3.33ZM12.411 5.84h4.245v1.875h-4.245V5.84ZM26.785.5V11h-2.4V8.21h-2.22L20.305 11H17.74l2.19-3.165c-.71-.29-1.255-.725-1.635-1.305-.38-.59-.57-1.295-.57-2.115 0-.81.185-1.505.555-2.085.37-.59.895-1.04 1.575-1.35.68-.32 1.48-.48 2.4-.48h4.53Zm-4.47 1.98c-.69 0-1.22.16-1.59.48-.36.32-.54.795-.54 1.425 0 .61.175 1.08.525 1.41.35.33.865.495 1.545.495h2.13V2.48h-2.07Z" /></symbol><symbol viewBox="0 0 16 16" fill="currentcolor" id="arrow-down"><path d="M14.364 5.293a1 1 0 0 0-1.414 0L8 10.243l-4.95-4.95a1 1 0 0 0-1.414 1.414l5.657 5.657a1 1 0 0 0 1.414 0l5.657-5.657a1 1 0 0 0 0-1.414Z" /></symbol><symbol viewBox="0 0 12 7.5" id="arrow-down-2"><path d="M1.5 0 0 1.5l6 6 6-6L10.5 0 6 4.5Z" fill="currentColor" fill-rule="evenodd" /></symbol><symbol viewBox="0 0 16 8" fill="currentcolor" id="arrow-right"><path fill-rule="evenodd" clip-rule="evenodd" d="m12.172.464 3.182 3.182a.5.5 0 0 1 0 .708l-3.182 3.182a.5.5 0 1 1-.708-.708L13.793 4.5H0v-1h13.793l-2.329-2.328a.5.5 0 1 1 .708-.708Z" /></symbol><symbol viewBox="0 0 19 19" fill="currentcolor" id="arrow-right-2"><path d="M16.401 10.34a1.188 1.188 0 0 0 0-1.68l-4.478-4.48a1.188 1.188 0 1 0-1.68 1.68l2.451 2.452H3.563a1.188 1.188 0 0 0 0 2.375h9.131l-2.45 2.451a1.187 1.187 0 1 0 1.68 1.68L16.4 10.34Z" /></symbol><symbol viewBox="0 0 16 16" fill="currentcolor" id="arrow-right-shevron"><path d="M5.292 1.636a1 1 0 0 0 0 1.414L10.242 8l-4.95 4.95a1 1 0 0 0 1.414 1.414l5.657-5.657a1 1 0 0 0 0-1.414L6.707 1.636a1 1 0 0 0-1.414 0Z" /></symbol><symbol viewBox="0 0 28 28" fill="currentcolor" id="basket"><path d="M19.833 21a2.325 2.325 0 0 0-2.333 2.333A2.334 2.334 0 1 0 19.833 21ZM1.167 2.333v2.334H3.5l4.2 8.855-1.587 2.858c-.175.327-.28.712-.28 1.12a2.333 2.333 0 0 0 2.334 2.333h14V17.5H8.657a.292.292 0 0 1-.292-.292c0-.058.012-.105.035-.14l1.05-1.901h8.692c.875 0 1.645-.49 2.041-1.202l4.177-7.548c.082-.187.14-.385.14-.584a1.167 1.167 0 0 0-1.167-1.166H6.078L4.982 2.333M8.167 21a2.325 2.325 0 0 0-2.334 2.333A2.333 2.333 0 1 0 8.167 21Z" /></symbol><symbol viewBox="0 0 26 26" fill="none" id="bolt"><path d="M11.56 22.75a.625.625 0 0 1-.618-.715l.975-6.868H8.125c-.953 0-.358-.813-.336-.845 1.365-2.416 3.413-5.991 6.121-10.758a.625.625 0 0 1 1.16.401l-.976 6.868h3.803c.433 0 .671.206.433.715-3.564 6.219-5.633 9.848-6.23 10.888a.615.615 0 0 1-.54.314Z" fill="#1C1C1C" /></symbol><symbol viewBox="0 0 26 26" fill="none" id="book"><path d="M5.417 21.125V6.717c0-1.214 0-1.82.236-2.284.208-.408.538-.739.947-.947.463-.236 1.07-.236 2.283-.236h9.967c.607 0 .91 0 1.143.118.203.104.369.27.472.474.118.231.118.535.118 1.141v12.784c0 .606 0 .91-.119 1.142a1.08 1.08 0 0 1-.471.473c-.233.118-.536.118-1.14.118H7.853a2.438 2.438 0 0 0-2.437 2.438c0 .448.364.812.812.812h11.54c.606 0 .91 0 1.14-.118.204-.104.37-.27.473-.474.118-.231.118-.535.118-1.141V19.5" stroke="#1C1C1C" stroke-width="2" stroke-linecap="round" stroke-linejoin="round" /></symbol><symbol viewBox="0 0 40 40" fill="none" id="car"><circle cx="20" cy="20" r="20" fill="#F43B3B" /><g clip-path="url(#car_a)"><path d="M31.979 19.342c-.137-.667-.35-1.572-1.258-1.523-1.15.065-1.281-.605-1.546-1.302-.304-.834-.76-1.634-.98-2.488-.463-1.79-1.851-2.462-3.58-2.703a32.488 32.488 0 0 0-9.132 0c-1.77.241-3.221.913-3.72 2.746-.244.899-.719 1.75-1.023 2.623-.216.667-.405 1.152-1.367 1.112-.962-.04-1.166.789-1.336 1.45-.21.822.514.72 1.05.757.362.023.347.216.268.477-.396 1.33-.061 2.694-.183 3.817v1.623c.018 3.403-.426 3.006 3.312 3.06 1.087 0 1.626-.343 1.498-1.381-.076-.621.067-.905.861-.896 3.455.045 6.913.037 10.369 0 .678 0 .889.21.806.8-.17 1.228.536 1.56 1.705 1.466.6-.034 1.202-.034 1.802 0 .859.028 1.334-.284 1.306-1.135-.088-2.422.18-4.853-.158-7.27-.043-.3-.18-.547.304-.567.484-.02 1.148.04 1.002-.666ZM15.15 22.955c-.152.517-.704.432-1.139.457-.347.02-.7 0-1.452 0-.415-.006-.83-.037-1.242-.09-1.026-.154-1.023-.886-.928-1.609.112-.882.776-.874 1.449-.664.846.261 1.677.568 2.502.902.46.185.986.414.81 1.004Zm5.11-4.078a39.69 39.69 0 0 1-6.925-.53c-.843-.14-1.217-.302-.892-1.226 1.47-4.136.691-4.136 5.991-4.394a31.68 31.68 0 0 1 5.839.204c1.342.19 2.234.687 2.5 1.986.061.225.136.447.224.664.993 3.057 1.523 2.439-2.155 3.023a24.087 24.087 0 0 1-4.581.273Zm8.22 4.476c-.545.042-1.096.059-1.674.087-.646-.178-1.726.355-1.927-.53-.216-.959.98-.976 1.632-1.302a7.888 7.888 0 0 1 1.521-.533c.713-.187 1.434-.304 1.568.683.131.826-.018 1.51-1.11 1.595h-.01Z" fill="#fff" /></g><defs></defs></symbol><clipPath id="car_a"><path fill="#fff" transform="translate(8 11)" d="M0 0h24v18H0z" /></clipPath><symbol viewBox="0 0 26 26" fill="none" id="cash"><path d="M7.583 11.917A2.167 2.167 0 0 1 9.75 9.75h10.833a2.167 2.167 0 0 1 2.167 2.167v6.5a2.167 2.167 0 0 1-2.167 2.166H9.75a2.166 2.166 0 0 1-2.167-2.166v-6.5Z" stroke="#1C1C1C" stroke-width="2" stroke-linecap="round" stroke-linejoin="round" /><path d="M18.417 9.75V7.583a2.167 2.167 0 0 0-2.167-2.166H5.417A2.167 2.167 0 0 0 3.25 7.583v6.5a2.167 2.167 0 0 0 2.167 2.167h2.166M13 15.167a2.167 2.167 0 1 0 4.334 0 2.167 2.167 0 0 0-4.334 0Z" stroke="#1C1C1C" stroke-width="2" stroke-linecap="round" stroke-linejoin="round" /></symbol><symbol fill="none" viewBox="0 0 26 26" id="chat"><path d="m4.333 20.583-1.007-.4a1.083 1.083 0 0 0 1.219 1.462l-.212-1.062Zm5.099-1.014.513-.954-.343-.184-.382.076.212 1.062Zm-3.34-3.409 1.008.4.177-.448-.213-.432-.971.48ZM20.584 13c0 3.517-3.09 6.5-7.074 6.5v2.167c5.028 0 9.241-3.807 9.241-8.667h-2.167ZM6.436 13c0-3.517 3.092-6.5 7.074-6.5V4.333C8.483 4.333 4.268 8.14 4.268 13h2.168Zm7.074-6.5c3.983 0 7.073 2.983 7.073 6.5h2.167c0-4.86-4.212-8.667-9.24-8.667V6.5Zm0 13a7.519 7.519 0 0 1-3.565-.885l-1.027 1.908a9.674 9.674 0 0 0 4.591 1.144V19.5Zm-8.965 2.145 5.098-1.014-.423-2.124-5.098 1.014.423 2.125v-.001Zm2.52-5.965A6.026 6.026 0 0 1 6.435 13H4.268a8.2 8.2 0 0 0 .852 3.64l1.944-.96Zm-1.979.08-1.76 4.424 2.013.8 1.759-4.424-2.013-.8h.001ZM9.75 14.083a1.083 1.083 0 1 0 0-2.166 1.083 1.083 0 0 0 0 2.166ZM13.542 14.083a1.083 1.083 0 1 0 0-2.166 1.083 1.083 0 0 0 0 2.166ZM17.333 14.083a1.083 1.083 0 1 0 0-2.166 1.083 1.083 0 0 0 0 2.166Z" fill="#1C1C1C" /></symbol><symbol viewBox="0 0 26 26" fill="none" id="clock"><path d="M13.612 6.932h-1.221a.204.204 0 0 0-.203.203v6.99a.2.2 0 0 0 .083.165l4.197 3.065a.203.203 0 0 0 .285-.044l.726-.99a.2.2 0 0 0-.043-.284l-3.62-2.618V7.135a.204.204 0 0 0-.204-.203Zm5.58 1.909 3.982.972a.204.204 0 0 0 .252-.195l.02-4.1a.202.202 0 0 0-.328-.16l-4.001 3.125a.203.203 0 0 0 .076.358Zm4.259 7.645-1.44-.495a.203.203 0 0 0-.256.122 8.921 8.921 0 0 1-2.08 3.24 8.963 8.963 0 0 1-6.353 2.633 8.963 8.963 0 0 1-6.353-2.633 9.005 9.005 0 0 1-1.926-2.857A8.974 8.974 0 0 1 4.342 13a8.91 8.91 0 0 1 .706-3.499 8.921 8.921 0 0 1 1.927-2.856 8.963 8.963 0 0 1 6.35-2.633 8.963 8.963 0 0 1 7.079 3.453l1.518-1.188a10.888 10.888 0 0 0-8.602-4.195 10.898 10.898 0 0 0-10.908 11.03c.061 5.98 4.923 10.806 10.913 10.806 4.71 0 8.722-2.986 10.25-7.168a.207.207 0 0 0-.124-.264Z" fill="#1C1C1C" /></symbol><symbol viewBox="0 0 24 24" fill="currentcolor" id="download"><path d="m12 16-5-5 1.4-1.45 2.6 2.6V4h2v8.15l2.6-2.6L17 11l-5 5Zm-6 4c-.55 0-1.021-.196-1.413-.588A1.922 1.922 0 0 1 4 18v-3h2v3h12v-3h2v3c0 .55-.196 1.021-.588 1.413A1.922 1.922 0 0 1 18 20H6Z" /></symbol><symbol viewBox="0 0 100 100" fill="currentcolor" id="empty"><path d="M94.708 94.708 5.292 5.292 0 10.583l18.292 18.292L27.5 48.292 21.875 58.5a8.055 8.055 0 0 0-1.042 4 8.333 8.333 0 0 0 8.334 8.333H60.25l5.75 5.75c-2.083 1.5-3.5 3.959-3.5 6.75a8.333 8.333 0 0 0 8.333 8.334 8.23 8.23 0 0 0 6.75-3.5L89.417 100l5.291-5.292ZM30.917 62.5a1.042 1.042 0 0 1-1.042-1.042l.125-.5 3.75-6.791h9.833l8.334 8.333h-21Zm33.875-8.333a8.294 8.294 0 0 0 7.291-4.292L87 22.917c.333-.667.5-1.375.5-2.084a4.167 4.167 0 0 0-4.167-4.166H27.25l37.542 37.5ZM29.167 75a8.333 8.333 0 1 0 0 16.667 8.333 8.333 0 0 0 0-16.667Z" /></symbol><symbol viewBox="0 0 19 26" fill="none" id="hit"><g clip-path="url(#hit_a)"><path d="M17.224 11.824c-.305-.423-.676-.79-1.021-1.157-.888-.846-1.896-1.453-2.744-2.341-1.975-2.06-2.412-5.46-1.153-8.069-1.26.325-2.36 1.058-3.3 1.862-3.434 2.934-4.786 8.11-3.169 12.554.053.141.106.282.106.466 0 .31-.199.592-.464.705-.305.141-.623.056-.875-.17a.81.81 0 0 1-.185-.24c-1.498-2.016-1.737-4.908-.73-7.221C1.477 10.13.27 13.375.443 16.436c.08.706.159 1.41.384 2.116.186.847.544 1.693.941 2.44 1.432 2.44 3.91 4.19 6.575 4.543 2.837.38 5.873-.17 8.047-2.257 2.425-2.342 3.274-6.094 2.028-9.31l-.173-.367c-.278-.649-1.02-1.777-1.02-1.777Zm-4.19 8.886c-.37.339-.98.706-1.457.847-1.485.564-2.97-.226-3.844-1.157 1.577-.395 2.518-1.636 2.797-2.892.225-1.128-.2-2.059-.372-3.145-.159-1.044-.132-1.933.226-2.906.252.536.517 1.072.835 1.495 1.02 1.41 2.625 2.031 2.97 3.95.052.197.079.395.079.606.04 1.157-.438 2.427-1.233 3.202Z" fill="#fff" /></g><defs></defs></symbol><clipPath id="hit_a"><rect width="100%" height="100%" fill="#fff" /></clipPath><symbol viewBox="0 0 13 18" fill="currentcolor" id="hit-2"><g clip-path="url(#hit-2_a)"><path d="M11.784 8.186c-.208-.293-.462-.547-.698-.801-.608-.586-1.297-1.006-1.877-1.621-1.352-1.426-1.651-3.78-.79-5.586-.861.225-1.614.732-2.258 1.289-2.349 2.031-3.274 5.615-2.167 8.691a.875.875 0 0 1 .072.323c0 .214-.136.41-.317.488-.209.098-.427.039-.599-.117a.56.56 0 0 1-.127-.166c-1.025-1.397-1.188-3.399-.499-5C1.01 7.014.184 9.26.302 11.379c.055.488.109.976.263 1.465.127.586.372 1.172.644 1.69.98 1.689 2.676 2.9 4.499 3.144 1.94.263 4.018-.117 5.505-1.563 1.66-1.62 2.24-4.218 1.388-6.445l-.118-.254c-.19-.45-.699-1.23-.699-1.23Zm-2.866 6.152c-.254.234-.67.488-.997.586-1.016.39-2.032-.156-2.63-.8 1.079-.274 1.723-1.134 1.913-2.003.154-.781-.136-1.426-.254-2.178-.109-.722-.09-1.337.154-2.011.173.37.354.742.572 1.035.698.976 1.796 1.406 2.031 2.734.037.137.055.274.055.42.027.8-.3 1.68-.844 2.217Z" /></g><defs></defs></symbol><clipPath id="hit-2_a"><rect /></clipPath><symbol viewBox="0 0 28 28" fill="currentcolor" id="icon-click"><path fill-rule="evenodd" clip-rule="evenodd" d="M14 1.167c.644 0 1.167.522 1.167 1.166V7a1.167 1.167 0 1 1-2.334 0V2.333c0-.644.523-1.166 1.167-1.166Z" /><path fill-rule="evenodd" clip-rule="evenodd" d="M12.833 12.833 24.5 15.167 21 17.5l3.5 3.5-3.5 3.5-3.5-3.5-2.333 3.5-2.334-11.667Z" fill="#fff" /><path fill-rule="evenodd" clip-rule="evenodd" d="M12.008 12.008a1.166 1.166 0 0 1 1.054-.319l11.667 2.334a1.167 1.167 0 0 1 .418 2.114l-2.316 1.544 2.494 2.494a1.167 1.167 0 0 1 0 1.65l-3.5 3.5a1.167 1.167 0 0 1-1.65 0l-2.494-2.494-1.544 2.316a1.167 1.167 0 0 1-2.114-.418l-2.334-11.667a1.166 1.166 0 0 1 .32-1.054Zm2.313 2.313 1.437 7.188.771-1.156a1.167 1.167 0 0 1 1.796-.178L21 22.85 22.85 21l-2.675-2.675a1.167 1.167 0 0 1 .178-1.796l1.156-.77-7.188-1.439ZM4.926 4.926a1.167 1.167 0 0 1 1.65 0l3.3 3.3a1.167 1.167 0 1 1-1.65 1.65l-3.3-3.3a1.167 1.167 0 0 1 0-1.65Zm18.148 0a1.167 1.167 0 0 1 0 1.65l-3.3 3.3a1.167 1.167 0 1 1-1.65-1.65l3.3-3.3a1.167 1.167 0 0 1 1.65 0ZM1.168 14c0-.644.522-1.167 1.166-1.167H7a1.167 1.167 0 0 1 0 2.334H2.333A1.167 1.167 0 0 1 1.167 14Zm8.708 4.125a1.167 1.167 0 0 1 0 1.65l-3.3 3.3a1.167 1.167 0 1 1-1.65-1.65l3.3-3.3a1.167 1.167 0 0 1 1.65 0Z" /></symbol><symbol viewBox="0 0 40 40" fill="none" id="info"><g clip-path="url(#info_a)"><path d="M20 39.839a19.839 19.839 0 1 0-16.764-9.225L.161 39.839l9.225-3.075A19.746 19.746 0 0 0 20 39.839Z" fill="#F43B3B" /></g><g clip-path="url(#info_b)"><path d="M16.833 27.229h.834V21.02h-.834a.847.847 0 0 1-.833-.859v-2.053c0-.474.373-.859.833-.859H21.5c.46 0 .833.385.833.86v9.119h.834c.46 0 .833.384.833.859v2.053c0 .474-.373.859-.833.859h-6.334a.847.847 0 0 1-.833-.86v-2.052c0-.475.373-.86.833-.86ZM20 9c-1.657 0-3 1.385-3 3.094 0 1.708 1.343 3.094 3 3.094s3-1.386 3-3.094C23 10.385 21.657 9 20 9Z" fill="#fff" /></g><defs></defs></symbol><clipPath id="info_a"><rect fill="#fff" /></clipPath><clipPath id="info_b"><path fill="#fff" transform="translate(16 9)" d="M0 0h8v22H0z" /></clipPath><symbol viewBox="0 0 25 25" fill="currentcolor" id="mail"><path d="M20.832 4.167H4.165A2.09 2.09 0 0 0 2.082 6.25v12.5a2.09 2.09 0 0 0 2.083 2.083h16.667a2.09 2.09 0 0 0 2.083-2.083V6.25a2.09 2.09 0 0 0-2.083-2.083Zm-.417 4.427-6.812 4.26a2.063 2.063 0 0 1-2.208 0l-6.813-4.26a.885.885 0 1 1 .938-1.5l6.979 4.364 6.979-4.364a.885.885 0 1 1 .937 1.5Z" /></symbol><symbol viewBox="0 0 24 24" fill="none" id="mark"><path d="M12 11.5a2.5 2.5 0 1 1 0-5 2.5 2.5 0 0 1 0 5ZM12 2a7 7 0 0 0-7 7c0 5.25 7 13 7 13s7-7.75 7-13a7 7 0 0 0-7-7Z" fill="#fff" /></symbol><symbol viewBox="0 0 30 30" fill="currentcolor" id="mark-2"><path d="M15 14.375a3.125 3.125 0 1 1 0-6.25 3.125 3.125 0 0 1 0 6.25ZM15 2.5a8.75 8.75 0 0 0-8.75 8.75C6.25 17.813 15 27.5 15 27.5s8.75-9.688 8.75-16.25A8.75 8.75 0 0 0 15 2.5Z" /></symbol><symbol viewBox="0 0 17 12" fill="none" id="menu"><g fill="#fff"><path d="M0 0h13v2H0zM0 5h17v2H0zM0 10h13v2H0z" /></g></symbol><symbol viewBox="0 0 18 18" fill="currentcolor" id="new"><g clip-path="url(#new_a)"><path d="m16.821 11.11-1.554-1.385a.955.955 0 0 1 0-1.457l1.554-1.385c.45-.4.33-.773-.266-.831l-2.061-.196c-.596-.055-.918-.57-.712-1.14l1.094-3.044c.205-.571-.046-.778-.558-.462l-2.43 1.503a1.042 1.042 0 0 1-1.468-.384L9.54.758C9.242.228 8.754.227 8.452.75l-.818 1.422c-.303.526-.997.75-1.542.5l-1.44-.66c-.547-.253-.965.037-.933.644l.077 1.453c.034.607-.414 1.23-.993 1.387l-1.39.373c-.578.156-.685.612-.235 1.012l1.555 1.385c.45.4.45 1.057 0 1.458L1.179 11.11c-.45.4-.33.789.264.86l1.886.23c.594.072.926.603.736 1.18l-.967 2.932c-.19.576.081.8.601.5l2.217-1.284a1.189 1.189 0 0 1 1.556.367l.92 1.385c.335.503.838.476 1.116-.061l.809-1.56a1.119 1.119 0 0 1 1.483-.489l1.56.78c.539.268.952-.008.92-.613l-.079-1.455c-.031-.607.415-1.229.996-1.386l1.389-.374c.58-.156.685-.612.235-1.012Zm-6.92 1.49H8.1v-1.8h1.8v1.8Zm0-2.7H8.1V5.4h1.8v4.5Z" fill="#1C1C1C" /></g><defs></defs></symbol><clipPath id="new_a"><rect /></clipPath><symbol viewBox="0 0 30 24" fill="currentcolor" id="payment"><path d="M27 6H3V3h24m0 18H3v-9h24m0-12H3a2.99 2.99 0 0 0-3 3v18a3 3 0 0 0 3 3h24a3 3 0 0 0 3-3V3a3 3 0 0 0-3-3Z" /></symbol><symbol viewBox="0 0 30 30" fill="currentcolor" id="phone-2"><path d="m19.696 17.633-.569.566s-1.353 1.345-5.047-2.328c-3.694-3.672-2.34-5.017-2.34-5.017l.357-.358c.884-.877.968-2.287.197-3.317l-1.575-2.104c-.955-1.275-2.8-1.444-3.893-.356l-1.962 1.95c-.542.54-.904 1.237-.86 2.012.112 1.984 1.01 6.25 6.015 11.228 5.308 5.277 10.29 5.487 12.326 5.297.645-.06 1.205-.387 1.656-.837l1.775-1.765c1.2-1.191.863-3.235-.672-4.069l-2.388-1.299c-1.007-.547-2.232-.386-3.02.396Z" /></symbol><symbol viewBox="0 0 24 24" fill="currentcolor" id="play"><path d="M9.5 15.584V8.416a.5.5 0 0 1 .77-.42l5.576 3.583a.5.5 0 0 1 0 .842l-5.576 3.584a.5.5 0 0 1-.77-.42v-.001Z" /><path d="M1 12C1 5.925 5.925 1 12 1s11 4.925 11 11-4.925 11-11 11S1 18.075 1 12Zm11-9.5a9.5 9.5 0 1 0 0 19 9.5 9.5 0 0 0 0-19Z" /></symbol><symbol fill="none" viewBox="0 0 18 24" id="play-icon"><path d="M18 12 0 23.135V.865L18 12Z" fill="#fff" /></symbol><symbol viewBox="0 0 13 13" fill="currentcolor" id="policy-arrow"><path d="M8.667 4.55 3.859 9.37a.528.528 0 0 1-.386.163.526.526 0 0 1-.386-.162.528.528 0 0 1-.162-.387c0-.149.054-.277.162-.385L7.908 3.79H3.792a.525.525 0 0 1-.387-.156.522.522 0 0 1-.155-.385c0-.154.052-.283.156-.387a.522.522 0 0 1 .386-.155h5.416c.154 0 .283.052.387.156a.522.522 0 0 1 .155.386v5.416a.525.525 0 0 1-.156.387.522.522 0 0 1-.386.155.525.525 0 0 1-.386-.156.522.522 0 0 1-.155-.386V4.55Z" /></symbol><symbol viewBox="0 0 26 26" fill="none" id="search"><path d="m20.475 21.992-6.067-6.067a6.605 6.605 0 0 1-4.117 1.408c-1.967 0-3.633-.681-4.996-2.044-1.363-1.364-2.045-3.03-2.045-4.997 0-1.968.682-3.634 2.045-4.998C6.658 3.931 8.324 3.25 10.292 3.25s3.633.681 4.997 2.044c1.363 1.364 2.044 3.03 2.044 4.998a6.605 6.605 0 0 1-1.408 4.116l6.094 6.094a.994.994 0 0 1 .298.731c0 .29-.109.542-.325.759a1.027 1.027 0 0 1-.759.298c-.307 0-.56-.1-.758-.298Zm-10.183-6.825c1.354 0 2.505-.474 3.453-1.422s1.422-2.1 1.422-3.453c0-1.354-.474-2.506-1.422-3.454-.948-.948-2.1-1.421-3.453-1.421-1.354 0-2.506.473-3.454 1.421-.948.948-1.421 2.1-1.421 3.454s.473 2.505 1.421 3.453c.948.948 2.1 1.422 3.454 1.422Z" fill="#fff" /></symbol><symbol viewBox="0 0 17 12" fill="currentcolor" id="sort"><path d="M0 0h17v2H0zM0 5h13v2H0zM0 10h9v2H0z" /></symbol><symbol viewBox="0 0 16.17 15.38" id="star"><path d="m8.08 0 2.5 5.06 5.59.81-4 3.94.95 5.57-5-2.63-5 2.63L4 9.81 0 5.87l5.59-.81Z" fill="#ffba09" /></symbol><symbol viewBox="0 0 30 24" fill="currentcolor" id="store"><path d="M1.725 9h26.55a1.726 1.726 0 0 0 1.434-2.681l-3.543-5.316A2.24 2.24 0 0 0 24.296 0H5.704c-.75 0-1.453.375-1.87 1.003L.29 6.314A1.727 1.727 0 0 0 1.725 9ZM3 10.5v11.25A2.25 2.25 0 0 0 5.25 24h10.5A2.25 2.25 0 0 0 18 21.75V10.5h-3V18H6v-7.5H3Zm21 0v12c0 .83.67 1.5 1.5 1.5s1.5-.67 1.5-1.5v-12h-3Z" /></symbol><symbol viewBox="0 0 40 40" fill="none" id="tech"><circle cx="20" cy="20" r="20" fill="#F43B3B" /><path d="M29.488 14.042 25.5 17.983s-1.192 0-2.383-1.191c-1.192-1.192-1.192-2.384-1.192-2.384l3.988-3.987c-2.246-.55-4.95.183-6.6 1.833-2.476 2.475-.275 5.638-.917 6.28-3.484 3.62-7.059 6.37-7.15 6.508-1.054 1.054-1.1 2.75-.092 3.758s2.704.962 3.758-.092c.138-.137 3.071-3.85 6.509-7.287.642-.642 3.666 1.696 6.233-.825 1.604-1.65 2.384-4.308 1.834-6.554Zm-16.18 13.795a1.135 1.135 0 0 1-1.146-1.145c0-.688.505-1.192 1.146-1.192.642 0 1.146.504 1.146 1.146 0 .642-.504 1.191-1.146 1.191Z" fill="#fff" /></symbol><symbol viewBox="0 0 37 24" fill="currentcolor" id="tobasket"><path d="M11 12.722H6.777V17H4.223v-4.278H0v-2.444h4.223V6h2.554v4.278H11v2.444ZM32 18.667A2.325 2.325 0 0 0 29.667 21 2.333 2.333 0 1 0 32 18.667ZM13.333 0v2.333h2.334l4.2 8.855-1.587 2.859c-.175.326-.28.711-.28 1.12a2.333 2.333 0 0 0 2.333 2.333h14v-2.333h-13.51a.292.292 0 0 1-.291-.292.25.25 0 0 1 .035-.14l1.05-1.902h8.691c.875 0 1.645-.49 2.042-1.201l4.177-7.549c.081-.186.14-.385.14-.583A1.167 1.167 0 0 0 35.5 2.333H18.245L17.148 0m3.185 18.667A2.325 2.325 0 0 0 18 21a2.333 2.333 0 1 0 2.333-2.333Z" /></symbol><symbol viewBox="0 0 24 24" fill="currentcolor" id="whatsapp"><path d="m2.004 22 1.352-4.968A9.954 9.954 0 0 1 2 12C2 6.477 6.477 2 12 2s10 4.477 10 10-4.477 10-10 10a9.953 9.953 0 0 1-5.03-1.355L2.004 22ZM8.391 7.308a.961.961 0 0 0-.371.1 1.293 1.293 0 0 0-.294.228c-.12.113-.188.211-.261.306A2.729 2.729 0 0 0 6.9 9.62c.002.49.13.967.33 1.413.409.902 1.082 1.857 1.971 2.742.214.213.423.427.648.626a9.448 9.448 0 0 0 3.84 2.046l.569.087c.185.01.37-.004.556-.013a1.99 1.99 0 0 0 .833-.231c.131-.067.259-.14.383-.22 0 0 .043-.028.125-.09.135-.1.218-.171.33-.288.083-.086.155-.187.21-.302.078-.163.156-.474.188-.733.024-.198.017-.306.014-.373-.004-.107-.093-.218-.19-.265l-.582-.261s-.87-.379-1.401-.621a.498.498 0 0 0-.177-.041.482.482 0 0 0-.378.127v-.002c-.005 0-.072.057-.795.933a.35.35 0 0 1-.368.13 1.418 1.418 0 0 1-.191-.066c-.124-.052-.167-.072-.252-.109l-.005-.002a6.011 6.011 0 0 1-1.57-1c-.126-.11-.243-.23-.363-.346a6.298 6.298 0 0 1-1.02-1.268l-.059-.095a.923.923 0 0 1-.102-.205c-.038-.147.061-.265.061-.265s.243-.266.356-.41a4.38 4.38 0 0 0 .263-.373c.118-.19.155-.385.093-.536-.28-.684-.57-1.365-.868-2.041-.059-.134-.234-.23-.393-.249a4.439 4.439 0 0 0-.162-.016 3.385 3.385 0 0 0-.403.005Z" /></symbol><symbol viewBox="0 0 40 40" fill="currentcolor" id="whatsapp-2"><path d="m3.339 36.667 2.253-8.28A16.59 16.59 0 0 1 3.332 20c0-9.205 7.462-16.667 16.667-16.667 9.205 0 16.666 7.462 16.666 16.667 0 9.205-7.461 16.667-16.666 16.667a16.59 16.59 0 0 1-8.384-2.259L3.34 36.667ZM13.984 12.18c-.216.013-.426.07-.619.167a2.15 2.15 0 0 0-.49.38c-.2.188-.313.351-.435.51a4.548 4.548 0 0 0-.941 2.796c.003.817.216 1.612.55 2.355.681 1.504 1.803 3.095 3.285 4.57.356.355.705.712 1.08 1.044a15.747 15.747 0 0 0 6.4 3.41l.948.145c.308.016.617-.007.927-.022.485-.025.96-.157 1.388-.385.218-.112.431-.235.638-.367 0 0 .072-.046.209-.15.225-.166.363-.285.55-.48.138-.143.258-.311.35-.503.13-.272.26-.79.313-1.222.04-.33.028-.51.023-.621-.006-.179-.155-.364-.316-.442l-.97-.435s-1.45-.632-2.335-1.035a.83.83 0 0 0-.295-.068.804.804 0 0 0-.63.211v-.003c-.009 0-.12.095-1.325 1.555a.583.583 0 0 1-.614.217 2.365 2.365 0 0 1-.318-.11c-.207-.087-.278-.12-.42-.182l-.008-.003a10.015 10.015 0 0 1-2.617-1.667c-.21-.183-.405-.383-.605-.577a10.487 10.487 0 0 1-1.7-2.113l-.098-.158a1.542 1.542 0 0 1-.17-.342c-.064-.245.101-.442.101-.442s.405-.443.594-.683c.156-.2.303-.407.438-.622.197-.316.258-.641.155-.893-.467-1.14-.95-2.275-1.447-3.402-.098-.223-.39-.383-.655-.415-.09-.01-.18-.02-.27-.026a5.617 5.617 0 0 0-.671.008Z" /></symbol><symbol viewBox="0 0 43 40" fill="currentcolor" id="youtube"><path d="M21.936 6.667c.957.005 3.35.026 5.894.121l.903.037c2.56.112 5.12.305 6.39.633 1.693.444 3.022 1.734 3.472 3.37.716 2.6.806 7.67.817 8.899l.002.253v.29c-.013 1.228-.103 6.3-.82 8.898-.454 1.642-1.785 2.934-3.471 3.37-1.27.329-3.83.522-6.39.634l-.903.038c-2.544.093-4.937.117-5.894.12l-.421.002h-.457c-2.025-.012-10.492-.097-13.187-.794-1.691-.443-3.022-1.733-3.472-3.37-.717-2.6-.806-7.67-.817-8.898v-.543c.01-1.229.1-6.3.817-8.899.455-1.641 1.786-2.933 3.474-3.368 2.693-.698 11.162-.783 13.187-.793h.876Zm-4.022 7.5v11.666L28.664 20l-10.75-5.833Z" /></symbol></defs><use id="+-usage" xlink:href="#+" class="sprite-symbol-usage" /><use id="--usage" xlink:href="#-" class="sprite-symbol-usage" /><use id="alphabet-usage" xlink:href="#alphabet" class="sprite-symbol-usage" /><use id="arrow-down-usage" xlink:href="#arrow-down" class="sprite-symbol-usage" /><use id="arrow-down-2-usage" xlink:href="#arrow-down-2" class="sprite-symbol-usage" /><use id="arrow-right-usage" xlink:href="#arrow-right" class="sprite-symbol-usage" /><use id="arrow-right-2-usage" xlink:href="#arrow-right-2" class="sprite-symbol-usage" /><use id="arrow-right-shevron-usage" xlink:href="#arrow-right-shevron" class="sprite-symbol-usage" /><use id="basket-usage" xlink:href="#basket" class="sprite-symbol-usage" /><use id="bolt-usage" xlink:href="#bolt" class="sprite-symbol-usage" /><use id="book-usage" xlink:href="#book" class="sprite-symbol-usage" /><use id="car-usage" xlink:href="#car" class="sprite-symbol-usage" /><use id="cash-usage" xlink:href="#cash" class="sprite-symbol-usage" /><use id="chat-usage" xlink:href="#chat" class="sprite-symbol-usage" /><use id="clock-usage" xlink:href="#clock" class="sprite-symbol-usage" /><use id="download-usage" xlink:href="#download" class="sprite-symbol-usage" /><use id="empty-usage" xlink:href="#empty" class="sprite-symbol-usage" /><use id="hit-usage" xlink:href="#hit" class="sprite-symbol-usage" /><use id="hit-2-usage" xlink:href="#hit-2" class="sprite-symbol-usage" /><use id="icon-click-usage" xlink:href="#icon-click" class="sprite-symbol-usage" /><use id="info-usage" xlink:href="#info" class="sprite-symbol-usage" /><use id="mail-usage" xlink:href="#mail" class="sprite-symbol-usage" /><use id="mark-usage" xlink:href="#mark" class="sprite-symbol-usage" /><use id="mark-2-usage" xlink:href="#mark-2" class="sprite-symbol-usage" /><use id="menu-usage" xlink:href="#menu" class="sprite-symbol-usage" /><use id="new-usage" xlink:href="#new" class="sprite-symbol-usage" /><use id="payment-usage" xlink:href="#payment" class="sprite-symbol-usage" /><use id="phone-2-usage" xlink:href="#phone-2" class="sprite-symbol-usage" /><use id="play-usage" xlink:href="#play" class="sprite-symbol-usage" /><use id="play-icon-usage" xlink:href="#play-icon" class="sprite-symbol-usage" /><use id="policy-arrow-usage" xlink:href="#policy-arrow" class="sprite-symbol-usage" /><use id="search-usage" xlink:href="#search" class="sprite-symbol-usage" /><use id="sort-usage" xlink:href="#sort" class="sprite-symbol-usage" /><use id="star-usage" xlink:href="#star" class="sprite-symbol-usage" /><use id="store-usage" xlink:href="#store" class="sprite-symbol-usage" /><use id="tech-usage" xlink:href="#tech" class="sprite-symbol-usage" /><use id="tobasket-usage" xlink:href="#tobasket" class="sprite-symbol-usage" /><use id="whatsapp-usage" xlink:href="#whatsapp" class="sprite-symbol-usage" /><use id="whatsapp-2-usage" xlink:href="#whatsapp-2" class="sprite-symbol-usage" /><use id="youtube-usage" xlink:href="#youtube" class="sprite-symbol-usage" /></svg>