<svg width="1920" height="605" viewBox="0 0 1920 605" fill="none" xmlns="http://www.w3.org/2000/svg">
<rect x="1499.06" y="571.005" width="3.10056" height="24.8045" transform="rotate(180 1499.06 571.005)" fill="#D2D1D1"/>
<rect x="1427.24" y="562.031" width="3.10056" height="24.8045" transform="rotate(-165.055 1427.24 562.031)" fill="#D2D1D1"/>
<rect x="1360.32" y="534.779" width="3.10056" height="24.8045" transform="rotate(-150.061 1360.32 534.779)" fill="#D2D1D1"/>
<rect x="1302.38" y="490.823" width="3.10056" height="24.8045" transform="rotate(-135 1302.38 490.823)" fill="#D2D1D1"/>
<rect x="1257.97" y="433.693" width="3.10056" height="24.8045" transform="rotate(-120.15 1257.97 433.693)" fill="#D2D1D1"/>
<rect x="1229.82" y="366.906" width="3.10056" height="24.8045" transform="rotate(-105.163 1229.82 366.906)" fill="#D2D1D1"/>
<rect x="1220" y="293.961" width="3.10056" height="24.8045" transform="rotate(-89.7788 1220 293.961)" fill="#D2D1D1"/>
<rect x="1229.27" y="222.12" width="3.10056" height="24.8045" transform="rotate(-74.8374 1229.27 222.12)" fill="#D2D1D1"/>
<rect x="1256.87" y="155.214" width="3.10056" height="24.8045" transform="rotate(-59.8498 1256.87 155.214)" fill="#D2D1D1"/>
<rect x="1300.94" y="97.6199" width="3.10056" height="24.8045" transform="rotate(-44.7918 1300.94 97.6199)" fill="#D2D1D1"/>
<rect x="1358.09" y="53.5164" width="3.10056" height="24.8045" transform="rotate(-29.9391 1358.09 53.5164)" fill="#D2D1D1"/>
<rect x="1424.5" y="25.707" width="3.10056" height="24.8045" transform="rotate(-14.9452 1424.5 25.707)" fill="#D2D1D1"/>
<rect x="1498.14" y="16" width="3.10056" height="24.8045" transform="rotate(0.442343 1498.14 16)" fill="#D2D1D1"/>
<rect x="1569.73" y="25.4932" width="3.10056" height="24.8045" transform="rotate(15.3799 1569.73 25.4932)" fill="#D2D1D1"/>
<rect x="1635.95" y="52.9442" width="3.10056" height="24.8045" transform="rotate(30.3612 1635.95 52.9442)" fill="#D2D1D1"/>
<rect x="1693.99" y="97.5391" width="3.10056" height="24.8045" transform="rotate(45.4163 1693.99 97.5391)" fill="#D2D1D1"/>
<rect x="1737.62" y="154.294" width="3.10056" height="24.8045" transform="rotate(60.2721 1737.62 154.294)" fill="#D2D1D1"/>
<rect x="1765.78" y="222.274" width="3.10056" height="24.8045" transform="rotate(75.4898 1765.78 222.274)" fill="#D2D1D1"/>
<rect x="1775" y="295.226" width="3.10056" height="24.8045" transform="rotate(90.6635 1775 295.226)" fill="#D2D1D1"/>
<rect x="1765.29" y="366.566" width="3.10056" height="24.8045" transform="rotate(105.597 1765.29 366.566)" fill="#D2D1D1"/>
<rect x="1737.7" y="432.574" width="3.10056" height="24.8045" transform="rotate(120.572 1737.7 432.574)" fill="#D2D1D1"/>
<rect x="1692.79" y="490.67" width="3.10056" height="24.8045" transform="rotate(135.625 1692.79 490.67)" fill="#D2D1D1"/>
<rect x="1635.67" y="534.225" width="3.10056" height="24.8045" transform="rotate(150.483 1635.67 534.225)" fill="#D2D1D1"/>
<rect x="1567.73" y="562.044" width="3.10056" height="24.8045" transform="rotate(165.707 1567.73 562.044)" fill="#D2D1D1"/>
<rect x="1498.43" y="567.9" width="1.86034" height="18.6034" transform="rotate(180 1498.43 567.9)" fill="#D2D1D1"/>
<rect x="1463.21" y="565.778" width="1.86034" height="18.6034" transform="rotate(-172.714 1463.21 565.778)" fill="#D2D1D1"/>
<rect x="1427.44" y="558.872" width="1.86034" height="18.6034" transform="rotate(-165.055 1427.44 558.872)" fill="#D2D1D1"/>
<rect x="1393.39" y="547.46" width="1.86034" height="18.6034" transform="rotate(-157.501 1393.39 547.46)" fill="#D2D1D1"/>
<rect x="1361.33" y="531.779" width="1.86034" height="18.6034" transform="rotate(-150.061 1361.33 531.779)" fill="#D2D1D1"/>
<rect x="1331.26" y="511.825" width="1.86034" height="18.6034" transform="rotate(-142.503 1331.26 511.825)" fill="#D2D1D1"/>
<rect x="1304.13" y="488.188" width="1.86034" height="18.6034" transform="rotate(-135 1304.13 488.188)" fill="#D2D1D1"/>
<rect x="1280.48" y="461.438" width="1.86034" height="18.6034" transform="rotate(-127.706 1280.48 461.438)" fill="#D2D1D1"/>
<rect x="1260.34" y="431.596" width="1.86034" height="18.6034" transform="rotate(-120.15 1260.34 431.596)" fill="#D2D1D1"/>
<rect x="1244.33" y="399.485" width="1.86034" height="18.6034" transform="rotate(-112.713 1244.33 399.485)" fill="#D2D1D1"/>
<rect x="1232.65" y="365.492" width="1.86034" height="18.6034" transform="rotate(-105.163 1232.65 365.492)" fill="#D2D1D1"/>
<rect x="1225.55" y="330.25" width="1.86034" height="18.6034" transform="rotate(-97.5057 1225.55 330.25)" fill="#D2D1D1"/>
<rect x="1223.1" y="293.349" width="1.86034" height="18.6034" transform="rotate(-89.7788 1223.1 293.349)" fill="#D2D1D1"/>
<rect x="1225.44" y="257.567" width="1.86034" height="18.6034" transform="rotate(-82.4943 1225.44 257.567)" fill="#D2D1D1"/>
<rect x="1232.43" y="222.329" width="1.86034" height="18.6034" transform="rotate(-74.8374 1232.43 222.329)" fill="#D2D1D1"/>
<rect x="1243.98" y="188.341" width="1.86034" height="18.6034" transform="rotate(-67.2874 1243.98 188.341)" fill="#D2D1D1"/>
<rect x="1259.86" y="156.232" width="1.86034" height="18.6034" transform="rotate(-59.8498 1259.86 156.232)" fill="#D2D1D1"/>
<rect x="1279.85" y="126.379" width="1.86034" height="18.6034" transform="rotate(-52.2945 1279.85 126.379)" fill="#D2D1D1"/>
<rect x="1303.56" y="99.3796" width="1.86034" height="18.6034" transform="rotate(-44.7918 1303.56 99.3796)" fill="#D2D1D1"/>
<rect x="1330.29" y="75.9214" width="1.86034" height="18.6034" transform="rotate(-37.4966 1330.29 75.9214)" fill="#D2D1D1"/>
<rect x="1360.17" y="55.8899" width="1.86034" height="18.6034" transform="rotate(-29.9391 1360.17 55.8899)" fill="#D2D1D1"/>
<rect x="1392.04" y="40.1003" width="1.86034" height="18.6034" transform="rotate(-22.4985 1392.04 40.1003)" fill="#D2D1D1"/>
<rect x="1425.9" y="28.5391" width="1.86034" height="18.6034" transform="rotate(-14.9452 1425.9 28.5391)" fill="#D2D1D1"/>
<rect x="1461.5" y="21.4414" width="1.86034" height="18.6034" transform="rotate(-7.28563 1461.5 21.4414)" fill="#D2D1D1"/>
<rect x="1498.74" y="19.1016" width="1.86034" height="18.6034" transform="rotate(0.442343 1498.74 19.1016)" fill="#D2D1D1"/>
<rect x="1533.71" y="21.4668" width="1.86034" height="18.6034" transform="rotate(7.72568 1533.71 21.4668)" fill="#D2D1D1"/>
<rect x="1569.5" y="28.6436" width="1.86034" height="18.6034" transform="rotate(15.3799 1569.5 28.6436)" fill="#D2D1D1"/>
<rect x="1603.38" y="40.2703" width="1.86034" height="18.6034" transform="rotate(22.9266 1603.38 40.2703)" fill="#D2D1D1"/>
<rect x="1634.91" y="55.9294" width="1.86034" height="18.6034" transform="rotate(30.3612 1634.91 55.9294)" fill="#D2D1D1"/>
<rect x="1665.08" y="76.1897" width="1.86034" height="18.6034" transform="rotate(37.9144 1665.08 76.1897)" fill="#D2D1D1"/>
<rect x="1692.22" y="100.153" width="1.86034" height="18.6034" transform="rotate(45.4163 1692.22 100.153)" fill="#D2D1D1"/>
<rect x="1714.94" y="126.091" width="1.86034" height="18.6034" transform="rotate(52.7124 1714.94 126.091)" fill="#D2D1D1"/>
<rect x="1735.24" y="156.366" width="1.86034" height="18.6034" transform="rotate(60.2721 1735.24 156.366)" fill="#D2D1D1"/>
<rect x="1751.54" y="189.582" width="1.86034" height="18.6034" transform="rotate(67.93 1751.54 189.582)" fill="#D2D1D1"/>
<rect x="1762.93" y="223.647" width="1.86034" height="18.6034" transform="rotate(75.4898 1762.93 223.647)" fill="#D2D1D1"/>
<rect x="1769.64" y="258.086" width="1.86034" height="18.6034" transform="rotate(82.9345 1769.64 258.086)" fill="#D2D1D1"/>
<rect x="1771.9" y="295.807" width="1.86034" height="18.6034" transform="rotate(90.6635 1771.9 295.807)" fill="#D2D1D1"/>
<rect x="1769.49" y="330.114" width="1.86034" height="18.6034" transform="rotate(97.9456 1769.49 330.114)" fill="#D2D1D1"/>
<rect x="1762.14" y="366.326" width="1.86034" height="18.6034" transform="rotate(105.597 1762.14 366.326)" fill="#D2D1D1"/>
<rect x="1750.41" y="400.146" width="1.86034" height="18.6034" transform="rotate(113.141 1750.41 400.146)" fill="#D2D1D1"/>
<rect x="1734.72" y="431.527" width="1.86034" height="18.6034" transform="rotate(120.572 1734.72 431.527)" fill="#D2D1D1"/>
<rect x="1714.27" y="461.771" width="1.86034" height="18.6034" transform="rotate(128.123 1714.27 461.771)" fill="#D2D1D1"/>
<rect x="1690.18" y="488.884" width="1.86034" height="18.6034" transform="rotate(135.625 1690.18 488.884)" fill="#D2D1D1"/>
<rect x="1662.74" y="512.591" width="1.86034" height="18.6034" transform="rotate(143.13 1662.74 512.591)" fill="#D2D1D1"/>
<rect x="1633.6" y="531.829" width="1.86034" height="18.6034" transform="rotate(150.483 1633.6 531.829)" fill="#D2D1D1"/>
<rect x="1600.49" y="547.918" width="1.86034" height="18.6034" transform="rotate(158.144 1600.49 547.918)" fill="#D2D1D1"/>
<rect x="1566.36" y="559.188" width="1.86034" height="18.6034" transform="rotate(165.707 1566.36 559.188)" fill="#D2D1D1"/>
<rect x="1531.52" y="565.814" width="1.86034" height="18.6034" transform="rotate(173.155 1531.52 565.814)" fill="#D2D1D1"/>
<rect x="1498.43" y="564.798" width="1.86034" height="12.4023" transform="rotate(180 1498.43 564.798)" fill="#D2D1D1"/>
<rect x="1492.02" y="564.745" width="1.86034" height="12.4023" transform="rotate(-178.673 1492.02 564.745)" fill="#D2D1D1"/>
<rect x="1484.59" y="564.498" width="1.86034" height="12.4023" transform="rotate(-177.126 1484.59 564.498)" fill="#D2D1D1"/>
<rect x="1477.23" y="564.053" width="1.86034" height="12.4023" transform="rotate(-175.58 1477.23 564.053)" fill="#D2D1D1"/>
<rect x="1470.87" y="563.508" width="1.86034" height="12.4023" transform="rotate(-174.256 1470.87 563.508)" fill="#D2D1D1"/>
<rect x="1463.6" y="562.701" width="1.86034" height="12.4023" transform="rotate(-172.714 1463.6 562.701)" fill="#D2D1D1"/>
<rect x="1456.4" y="561.705" width="1.86034" height="12.4023" transform="rotate(-171.175 1456.4 561.705)" fill="#D2D1D1"/>
<rect x="1449.26" y="560.522" width="1.86034" height="12.4023" transform="rotate(-169.639 1449.26 560.522)" fill="#D2D1D1"/>
<rect x="1442.19" y="559.154" width="1.86034" height="12.4023" transform="rotate(-168.107 1442.19 559.154)" fill="#D2D1D1"/>
<rect x="1435.18" y="557.605" width="1.86034" height="12.4023" transform="rotate(-166.579 1435.18 557.605)" fill="#D2D1D1"/>
<rect x="1428.24" y="555.875" width="1.86034" height="12.4023" transform="rotate(-165.055 1428.24 555.875)" fill="#D2D1D1"/>
<rect x="1421.36" y="553.967" width="1.86034" height="12.4023" transform="rotate(-163.535 1421.36 553.967)" fill="#D2D1D1"/>
<rect x="1414.56" y="551.884" width="1.86034" height="12.4023" transform="rotate(-162.02 1414.56 551.884)" fill="#D2D1D1"/>
<rect x="1407.82" y="549.625" width="1.86034" height="12.4023" transform="rotate(-160.509 1407.82 549.625)" fill="#D2D1D1"/>
<rect x="1401.16" y="547.195" width="1.86034" height="12.4023" transform="rotate(-159.003 1401.16 547.195)" fill="#D2D1D1"/>
<rect x="1394.58" y="544.594" width="1.86034" height="12.4023" transform="rotate(-157.501 1394.58 544.594)" fill="#D2D1D1"/>
<rect x="1388.07" y="541.823" width="1.86034" height="12.4023" transform="rotate(-156.005 1388.07 541.823)" fill="#D2D1D1"/>
<rect x="1381.65" y="538.886" width="1.86034" height="12.4023" transform="rotate(-154.512 1381.65 538.886)" fill="#D2D1D1"/>
<rect x="1375.3" y="535.784" width="1.86034" height="12.4023" transform="rotate(-153.024 1375.3 535.784)" fill="#D2D1D1"/>
<rect x="1369.05" y="532.518" width="1.86034" height="12.4023" transform="rotate(-151.541 1369.05 532.518)" fill="#D2D1D1"/>
<rect x="1362.88" y="529.09" width="1.86034" height="12.4023" transform="rotate(-150.061 1362.88 529.09)" fill="#D2D1D1"/>
<rect x="1356.8" y="525.504" width="1.86034" height="12.4023" transform="rotate(-148.585 1356.8 525.504)" fill="#D2D1D1"/>
<rect x="1350.82" y="521.76" width="1.86034" height="12.4023" transform="rotate(-147.112 1350.82 521.76)" fill="#D2D1D1"/>
<rect x="1344.93" y="517.861" width="1.86034" height="12.4023" transform="rotate(-145.643 1344.93 517.861)" fill="#D2D1D1"/>
<rect x="1338.8" y="513.562" width="1.86034" height="12.4023" transform="rotate(-143.967 1338.8 513.562)" fill="#D2D1D1"/>
<rect x="1333.14" y="509.363" width="1.86034" height="12.4023" transform="rotate(-142.503 1333.14 509.363)" fill="#D2D1D1"/>
<rect x="1327.6" y="505.017" width="1.86034" height="12.4023" transform="rotate(-141.042 1327.6 505.017)" fill="#D2D1D1"/>
<rect x="1322.16" y="500.526" width="1.86034" height="12.4023" transform="rotate(-139.582 1322.16 500.526)" fill="#D2D1D1"/>
<rect x="1316.83" y="495.892" width="1.86034" height="12.4023" transform="rotate(-138.123 1316.83 495.892)" fill="#D2D1D1"/>
<rect x="1311.63" y="491.119" width="1.86034" height="12.4023" transform="rotate(-136.665 1311.63 491.119)" fill="#D2D1D1"/>
<rect x="1306.32" y="485.994" width="1.86034" height="12.4023" transform="rotate(-135 1306.32 485.994)" fill="#D2D1D1"/>
<rect x="1301.38" y="480.957" width="1.86034" height="12.4023" transform="rotate(-133.543 1301.38 480.957)" fill="#D2D1D1"/>
<rect x="1296.57" y="475.79" width="1.86034" height="12.4023" transform="rotate(-132.085 1296.57 475.79)" fill="#D2D1D1"/>
<rect x="1291.89" y="470.496" width="1.86034" height="12.4023" transform="rotate(-130.627 1291.89 470.496)" fill="#D2D1D1"/>
<rect x="1287.34" y="465.078" width="1.86034" height="12.4023" transform="rotate(-129.167 1287.34 465.078)" fill="#D2D1D1"/>
<rect x="1282.94" y="459.54" width="1.86034" height="12.4023" transform="rotate(-127.706 1282.94 459.54)" fill="#D2D1D1"/>
<rect x="1278.67" y="453.885" width="1.86034" height="12.4023" transform="rotate(-126.242 1278.67 453.885)" fill="#D2D1D1"/>
<rect x="1274.44" y="447.957" width="1.86034" height="12.4023" transform="rotate(-124.567 1274.44 447.957)" fill="#D2D1D1"/>
<rect x="1270.48" y="442.088" width="1.86034" height="12.4023" transform="rotate(-123.098 1270.48 442.088)" fill="#D2D1D1"/>
<rect x="1266.67" y="436.113" width="1.86034" height="12.4023" transform="rotate(-121.626 1266.67 436.113)" fill="#D2D1D1"/>
<rect x="1263.02" y="430.037" width="1.86034" height="12.4023" transform="rotate(-120.15 1263.02 430.037)" fill="#D2D1D1"/>
<rect x="1259.52" y="423.864" width="1.86034" height="12.4023" transform="rotate(-118.671 1259.52 423.864)" fill="#D2D1D1"/>
<rect x="1256.19" y="417.597" width="1.86034" height="12.4023" transform="rotate(-117.188 1256.19 417.597)" fill="#D2D1D1"/>
<rect x="1253.02" y="411.243" width="1.86034" height="12.4023" transform="rotate(-115.7 1253.02 411.243)" fill="#D2D1D1"/>
<rect x="1250.02" y="404.804" width="1.86034" height="12.4023" transform="rotate(-114.209 1250.02 404.804)" fill="#D2D1D1"/>
<rect x="1247.19" y="398.286" width="1.86034" height="12.4023" transform="rotate(-112.713 1247.19 398.286)" fill="#D2D1D1"/>
<rect x="1244.52" y="391.694" width="1.86034" height="12.4023" transform="rotate(-111.212 1244.52 391.694)" fill="#D2D1D1"/>
<rect x="1242.04" y="385.032" width="1.86034" height="12.4023" transform="rotate(-109.706 1242.04 385.032)" fill="#D2D1D1"/>
<rect x="1239.73" y="378.306" width="1.86034" height="12.4023" transform="rotate(-108.196 1239.73 378.306)" fill="#D2D1D1"/>
<rect x="1237.6" y="371.52" width="1.86034" height="12.4023" transform="rotate(-106.682 1237.6 371.52)" fill="#D2D1D1"/>
<rect x="1235.64" y="364.68" width="1.86034" height="12.4023" transform="rotate(-105.163 1235.64 364.68)" fill="#D2D1D1"/>
<rect x="1233.87" y="357.791" width="1.86034" height="12.4023" transform="rotate(-103.639 1233.87 357.791)" fill="#D2D1D1"/>
<rect x="1232.28" y="350.857" width="1.86034" height="12.4023" transform="rotate(-102.111 1232.28 350.857)" fill="#D2D1D1"/>
<rect x="1230.88" y="343.885" width="1.86034" height="12.4023" transform="rotate(-100.58 1230.88 343.885)" fill="#D2D1D1"/>
<rect x="1229.66" y="336.878" width="1.86034" height="12.4023" transform="rotate(-99.0443 1229.66 336.878)" fill="#D2D1D1"/>
<rect x="1228.62" y="329.843" width="1.86034" height="12.4023" transform="rotate(-97.5057 1228.62 329.843)" fill="#D2D1D1"/>
<rect x="1227.77" y="322.784" width="1.86034" height="12.4023" transform="rotate(-95.9641 1227.77 322.784)" fill="#D2D1D1"/>
<rect x="1227.11" y="315.733" width="1.86034" height="12.4023" transform="rotate(-94.6409 1227.11 315.733)" fill="#D2D1D1"/>
<rect x="1226.62" y="308.639" width="1.86034" height="12.4023" transform="rotate(-93.0952 1226.62 308.639)" fill="#D2D1D1"/>
<rect x="1226.32" y="301.536" width="1.86034" height="12.4023" transform="rotate(-91.548 1226.32 301.536)" fill="#D2D1D1"/>
<rect x="1226.2" y="293.359" width="1.86034" height="12.4023" transform="rotate(-89.7788 1226.2 293.359)" fill="#D2D1D1"/>
<rect x="1226.3" y="286.276" width="1.86034" height="12.4023" transform="rotate(-88.452 1226.3 286.276)" fill="#D2D1D1"/>
<rect x="1226.58" y="279.173" width="1.86034" height="12.4023" transform="rotate(-86.9048 1226.58 279.173)" fill="#D2D1D1"/>
<rect x="1227.04" y="272.079" width="1.86034" height="12.4023" transform="rotate(-85.3591 1227.04 272.079)" fill="#D2D1D1"/>
<rect x="1227.68" y="265.029" width="1.86034" height="12.4023" transform="rotate(-84.0359 1227.68 265.029)" fill="#D2D1D1"/>
<rect x="1228.51" y="257.971" width="1.86034" height="12.4023" transform="rotate(-82.4943 1228.51 257.971)" fill="#D2D1D1"/>
<rect x="1229.53" y="250.936" width="1.86034" height="12.4023" transform="rotate(-80.9557 1229.53 250.936)" fill="#D2D1D1"/>
<rect x="1230.72" y="243.931" width="1.86034" height="12.4023" transform="rotate(-79.4203 1230.72 243.931)" fill="#D2D1D1"/>
<rect x="1232.11" y="236.959" width="1.86034" height="12.4023" transform="rotate(-77.8887 1232.11 236.959)" fill="#D2D1D1"/>
<rect x="1233.67" y="230.027" width="1.86034" height="12.4023" transform="rotate(-76.3609 1233.67 230.027)" fill="#D2D1D1"/>
<rect x="1235.42" y="223.138" width="1.86034" height="12.4023" transform="rotate(-74.8374 1235.42 223.138)" fill="#D2D1D1"/>
<rect x="1237.35" y="216.299" width="1.86034" height="12.4023" transform="rotate(-73.3182 1237.35 216.299)" fill="#D2D1D1"/>
<rect x="1239.46" y="209.514" width="1.86034" height="12.4023" transform="rotate(-71.8036 1239.46 209.514)" fill="#D2D1D1"/>
<rect x="1241.74" y="202.789" width="1.86034" height="12.4023" transform="rotate(-70.2935 1241.74 202.789)" fill="#D2D1D1"/>
<rect x="1244.2" y="196.128" width="1.86034" height="12.4023" transform="rotate(-68.7881 1244.2 196.128)" fill="#D2D1D1"/>
<rect x="1246.84" y="189.537" width="1.86034" height="12.4023" transform="rotate(-67.2874 1246.84 189.537)" fill="#D2D1D1"/>
<rect x="1249.65" y="183.02" width="1.86034" height="12.4023" transform="rotate(-65.7912 1249.65 183.02)" fill="#D2D1D1"/>
<rect x="1252.62" y="176.582" width="1.86034" height="12.4023" transform="rotate(-64.2995 1252.62 176.582)" fill="#D2D1D1"/>
<rect x="1255.77" y="170.227" width="1.86034" height="12.4023" transform="rotate(-62.8122 1255.77 170.227)" fill="#D2D1D1"/>
<rect x="1259.07" y="163.961" width="1.86034" height="12.4023" transform="rotate(-61.329 1259.07 163.961)" fill="#D2D1D1"/>
<rect x="1262.54" y="157.787" width="1.86034" height="12.4023" transform="rotate(-59.8498 1262.54 157.787)" fill="#D2D1D1"/>
<rect x="1266.16" y="151.711" width="1.86034" height="12.4023" transform="rotate(-58.3743 1266.16 151.711)" fill="#D2D1D1"/>
<rect x="1269.94" y="145.735" width="1.86034" height="12.4023" transform="rotate(-56.9022 1269.94 145.735)" fill="#D2D1D1"/>
<rect x="1273.87" y="139.864" width="1.86034" height="12.4023" transform="rotate(-55.4333 1273.87 139.864)" fill="#D2D1D1"/>
<rect x="1278.07" y="133.932" width="1.86034" height="12.4023" transform="rotate(-53.7579 1278.07 133.932)" fill="#D2D1D1"/>
<rect x="1282.3" y="128.274" width="1.86034" height="12.4023" transform="rotate(-52.2945 1282.3 128.274)" fill="#D2D1D1"/>
<rect x="1286.68" y="122.733" width="1.86034" height="12.4023" transform="rotate(-50.8331 1286.68 122.733)" fill="#D2D1D1"/>
<rect x="1291.2" y="117.311" width="1.86034" height="12.4023" transform="rotate(-49.3734 1291.2 117.311)" fill="#D2D1D1"/>
<rect x="1295.84" y="112.012" width="1.86034" height="12.4023" transform="rotate(-47.9149 1295.84 112.012)" fill="#D2D1D1"/>
<rect x="1300.63" y="106.84" width="1.86034" height="12.4023" transform="rotate(-46.4572 1300.63 106.84)" fill="#D2D1D1"/>
<rect x="1305.75" y="101.579" width="1.86034" height="12.4023" transform="rotate(-44.7918 1305.75 101.579)" fill="#D2D1D1"/>
<rect x="1310.8" y="96.662" width="1.86034" height="12.4023" transform="rotate(-43.3346 1310.8 96.662)" fill="#D2D1D1"/>
<rect x="1315.97" y="91.8811" width="1.86034" height="12.4023" transform="rotate(-41.8768 1315.97 91.8811)" fill="#D2D1D1"/>
<rect x="1321.26" y="87.2388" width="1.86034" height="12.4023" transform="rotate(-40.4182 1321.26 87.2388)" fill="#D2D1D1"/>
<rect x="1326.66" y="82.7375" width="1.86034" height="12.4023" transform="rotate(-38.9582 1326.66 82.7375)" fill="#D2D1D1"/>
<rect x="1332.17" y="78.3799" width="1.86034" height="12.4023" transform="rotate(-37.4966 1332.17 78.3799)" fill="#D2D1D1"/>
<rect x="1338.14" y="73.918" width="1.86034" height="12.4023" transform="rotate(-35.8236 1338.14 73.918)" fill="#D2D1D1"/>
<rect x="1343.88" y="69.8527" width="1.86034" height="12.4023" transform="rotate(-34.3571 1343.88 69.8527)" fill="#D2D1D1"/>
<rect x="1349.73" y="65.9391" width="1.86034" height="12.4023" transform="rotate(-32.8877 1349.73 65.9391)" fill="#D2D1D1"/>
<rect x="1355.68" y="62.1792" width="1.86034" height="12.4023" transform="rotate(-31.4151 1355.68 62.1792)" fill="#D2D1D1"/>
<rect x="1361.72" y="58.5752" width="1.86034" height="12.4023" transform="rotate(-29.9391 1361.72 58.5752)" fill="#D2D1D1"/>
<rect x="1367.85" y="55.1293" width="1.86034" height="12.4023" transform="rotate(-28.4593 1367.85 55.1293)" fill="#D2D1D1"/>
<rect x="1374.07" y="51.8431" width="1.86034" height="12.4023" transform="rotate(-26.9756 1374.07 51.8431)" fill="#D2D1D1"/>
<rect x="1380.37" y="48.719" width="1.86034" height="12.4023" transform="rotate(-25.4876 1380.37 48.719)" fill="#D2D1D1"/>
<rect x="1386.76" y="45.7585" width="1.86034" height="12.4023" transform="rotate(-23.9953 1386.76 45.7585)" fill="#D2D1D1"/>
<rect x="1393.23" y="42.9635" width="1.86034" height="12.4023" transform="rotate(-22.4985 1393.23 42.9635)" fill="#D2D1D1"/>
<rect x="1399.78" y="40.3358" width="1.86034" height="12.4023" transform="rotate(-20.9971 1399.78 40.3358)" fill="#D2D1D1"/>
<rect x="1407.04" y="37.6473" width="1.86034" height="12.4023" transform="rotate(-19.2755 1407.04 37.6473)" fill="#D2D1D1"/>
<rect x="1413.77" y="35.3683" width="1.86034" height="12.4023" transform="rotate(-17.7642 1413.77 35.3683)" fill="#D2D1D1"/>
<rect x="1420.57" y="33.2633" width="1.86034" height="12.4023" transform="rotate(-16.2482 1420.57 33.2633)" fill="#D2D1D1"/>
<rect x="1426.7" y="31.5334" width="1.86034" height="12.4023" transform="rotate(-14.9452 1426.7 31.5334)" fill="#D2D1D1"/>
<rect x="1433.6" y="29.7689" width="1.86034" height="12.4023" transform="rotate(-13.4211 1433.6 29.7689)" fill="#D2D1D1"/>
<rect x="1440.58" y="28.1826" width="1.86034" height="12.4023" transform="rotate(-11.8928 1440.58 28.1826)" fill="#D2D1D1"/>
<rect x="1447.62" y="26.777" width="1.86034" height="12.4023" transform="rotate(-10.3605 1447.62 26.777)" fill="#D2D1D1"/>
<rect x="1454.72" y="25.5536" width="1.86034" height="12.4023" transform="rotate(-8.82471 1454.72 25.5536)" fill="#D2D1D1"/>
<rect x="1461.89" y="24.5155" width="1.86034" height="12.4023" transform="rotate(-7.28563 1461.89 24.5155)" fill="#D2D1D1"/>
<rect x="1469.13" y="23.6649" width="1.86034" height="12.4023" transform="rotate(-5.74371 1469.13 23.6649)" fill="#D2D1D1"/>
<rect x="1475.46" y="23.0818" width="1.86034" height="12.4023" transform="rotate(-4.42015 1475.46 23.0818)" fill="#D2D1D1"/>
<rect x="1482.79" y="22.5908" width="1.86034" height="12.4023" transform="rotate(-2.87423 1482.79 22.5908)" fill="#D2D1D1"/>
<rect x="1490.18" y="22.2949" width="1.86034" height="12.4023" transform="rotate(-1.32691 1490.18 22.2949)" fill="#D2D1D1"/>
<rect x="1498.71" y="22.2007" width="1.86034" height="12.4023" transform="rotate(0.442343 1498.71 22.2007)" fill="#D2D1D1"/>
<rect x="1505.08" y="22.3016" width="1.86034" height="12.4023" transform="rotate(1.76911 1505.08 22.3016)" fill="#D2D1D1"/>
<rect x="1512.49" y="22.605" width="1.86034" height="12.4023" transform="rotate(3.31609 1512.49 22.605)" fill="#D2D1D1"/>
<rect x="1519.86" y="23.106" width="1.86034" height="12.4023" transform="rotate(4.86151 1519.86 23.106)" fill="#D2D1D1"/>
<rect x="1526.04" y="23.6802" width="1.86034" height="12.4023" transform="rotate(6.18452 1526.04 23.6802)" fill="#D2D1D1"/>
<rect x="1533.29" y="24.5377" width="1.86034" height="12.4023" transform="rotate(7.72568 1533.29 24.5377)" fill="#D2D1D1"/>
<rect x="1540.5" y="25.5859" width="1.86034" height="12.4023" transform="rotate(9.26387 1540.5 25.5859)" fill="#D2D1D1"/>
<rect x="1547.64" y="26.8223" width="1.86034" height="12.4023" transform="rotate(10.7987 1547.64 26.8223)" fill="#D2D1D1"/>
<rect x="1554.72" y="28.2439" width="1.86034" height="12.4023" transform="rotate(12.3298 1554.72 28.2439)" fill="#D2D1D1"/>
<rect x="1561.74" y="29.848" width="1.86034" height="12.4023" transform="rotate(13.857 1561.74 29.848)" fill="#D2D1D1"/>
<rect x="1568.68" y="31.6316" width="1.86034" height="12.4023" transform="rotate(15.3799 1568.68 31.6316)" fill="#D2D1D1"/>
<rect x="1575.54" y="33.5911" width="1.86034" height="12.4023" transform="rotate(16.8985 1575.54 33.5911)" fill="#D2D1D1"/>
<rect x="1582.33" y="35.7236" width="1.86034" height="12.4023" transform="rotate(18.4124 1582.33 35.7236)" fill="#D2D1D1"/>
<rect x="1589.03" y="38.0256" width="1.86034" height="12.4023" transform="rotate(19.9218 1589.03 38.0256)" fill="#D2D1D1"/>
<rect x="1595.64" y="40.4937" width="1.86034" height="12.4023" transform="rotate(21.4265 1595.64 40.4937)" fill="#D2D1D1"/>
<rect x="1602.17" y="43.1244" width="1.86034" height="12.4023" transform="rotate(22.9266 1602.17 43.1244)" fill="#D2D1D1"/>
<rect x="1608.6" y="45.9147" width="1.86034" height="12.4023" transform="rotate(24.4221 1608.6 45.9147)" fill="#D2D1D1"/>
<rect x="1614.94" y="48.8608" width="1.86034" height="12.4023" transform="rotate(25.9132 1614.94 48.8608)" fill="#D2D1D1"/>
<rect x="1621.17" y="51.96" width="1.86034" height="12.4023" transform="rotate(27.3999 1621.17 51.96)" fill="#D2D1D1"/>
<rect x="1627.31" y="55.2084" width="1.86034" height="12.4023" transform="rotate(28.8825 1627.31 55.2084)" fill="#D2D1D1"/>
<rect x="1633.35" y="58.6034" width="1.86034" height="12.4023" transform="rotate(30.3612 1633.35 58.6034)" fill="#D2D1D1"/>
<rect x="1639.28" y="62.1412" width="1.86034" height="12.4023" transform="rotate(31.8362 1639.28 62.1412)" fill="#D2D1D1"/>
<rect x="1645.1" y="65.8193" width="1.86034" height="12.4023" transform="rotate(33.3078 1645.1 65.8193)" fill="#D2D1D1"/>
<rect x="1652.09" y="70.5176" width="1.86034" height="12.4023" transform="rotate(34.9859 1652.09 70.5176)" fill="#D2D1D1"/>
<rect x="1657.69" y="74.5103" width="1.86034" height="12.4023" transform="rotate(36.4513 1657.69 74.5103)" fill="#D2D1D1"/>
<rect x="1663.17" y="78.6343" width="1.86034" height="12.4023" transform="rotate(37.9144 1663.17 78.6343)" fill="#D2D1D1"/>
<rect x="1668.54" y="82.8873" width="1.86034" height="12.4023" transform="rotate(39.3755 1668.54 82.8873)" fill="#D2D1D1"/>
<rect x="1673.79" y="87.2665" width="1.86034" height="12.4023" transform="rotate(40.835 1673.79 87.2665)" fill="#D2D1D1"/>
<rect x="1678.92" y="91.7694" width="1.86034" height="12.4023" transform="rotate(42.2934 1678.92 91.7694)" fill="#D2D1D1"/>
<rect x="1683.94" y="96.3938" width="1.86034" height="12.4023" transform="rotate(43.751 1683.94 96.3938)" fill="#D2D1D1"/>
<rect x="1690.01" y="102.328" width="1.86034" height="12.4023" transform="rotate(45.4163 1690.01 102.328)" fill="#D2D1D1"/>
<rect x="1694.76" y="107.231" width="1.86034" height="12.4023" transform="rotate(46.8737 1694.76 107.231)" fill="#D2D1D1"/>
<rect x="1699.38" y="112.248" width="1.86034" height="12.4023" transform="rotate(48.3315 1699.38 112.248)" fill="#D2D1D1"/>
<rect x="1703.88" y="117.377" width="1.86034" height="12.4023" transform="rotate(49.7903 1703.88 117.377)" fill="#D2D1D1"/>
<rect x="1708.24" y="122.618" width="1.86034" height="12.4023" transform="rotate(51.2505 1708.24 122.618)" fill="#D2D1D1"/>
<rect x="1712.48" y="127.968" width="1.86034" height="12.4023" transform="rotate(52.7124 1712.48 127.968)" fill="#D2D1D1"/>
<rect x="1717.62" y="134.87" width="1.86034" height="12.4023" transform="rotate(54.3858 1717.62 134.87)" fill="#D2D1D1"/>
<rect x="1721.56" y="140.472" width="1.86034" height="12.4023" transform="rotate(55.8527 1721.56 140.472)" fill="#D2D1D1"/>
<rect x="1725.36" y="146.179" width="1.86034" height="12.4023" transform="rotate(57.3225 1725.36 146.179)" fill="#D2D1D1"/>
<rect x="1729.02" y="151.99" width="1.86034" height="12.4023" transform="rotate(58.7955 1729.02 151.99)" fill="#D2D1D1"/>
<rect x="1732.54" y="157.902" width="1.86034" height="12.4023" transform="rotate(60.2721 1732.54 157.902)" fill="#D2D1D1"/>
<rect x="1735.92" y="163.916" width="1.86034" height="12.4023" transform="rotate(61.7524 1735.92 163.916)" fill="#D2D1D1"/>
<rect x="1739.15" y="170.03" width="1.86034" height="12.4023" transform="rotate(63.2367 1739.15 170.03)" fill="#D2D1D1"/>
<rect x="1742.23" y="176.244" width="1.86034" height="12.4023" transform="rotate(64.7253 1742.23 176.244)" fill="#D2D1D1"/>
<rect x="1745.16" y="182.557" width="1.86034" height="12.4023" transform="rotate(66.2182 1745.16 182.557)" fill="#D2D1D1"/>
<rect x="1748.67" y="190.745" width="1.86034" height="12.4023" transform="rotate(67.93 1748.67 190.745)" fill="#D2D1D1"/>
<rect x="1751.25" y="197.287" width="1.86034" height="12.4023" transform="rotate(69.4327 1751.25 197.287)" fill="#D2D1D1"/>
<rect x="1753.67" y="203.926" width="1.86034" height="12.4023" transform="rotate(70.9401 1753.67 203.926)" fill="#D2D1D1"/>
<rect x="1755.92" y="210.662" width="1.86034" height="12.4023" transform="rotate(72.4521 1755.92 210.662)" fill="#D2D1D1"/>
<rect x="1758.01" y="217.494" width="1.86034" height="12.4023" transform="rotate(73.9687 1758.01 217.494)" fill="#D2D1D1"/>
<rect x="1759.93" y="224.423" width="1.86034" height="12.4023" transform="rotate(75.4898 1759.93 224.423)" fill="#D2D1D1"/>
<rect x="1761.22" y="229.498" width="1.86034" height="12.4023" transform="rotate(76.797 1761.22 229.498)" fill="#D2D1D1"/>
<rect x="1762.83" y="236.594" width="1.86034" height="12.4023" transform="rotate(78.3259 1762.83 236.594)" fill="#D2D1D1"/>
<rect x="1764.27" y="243.788" width="1.86034" height="12.4023" transform="rotate(79.8586 1764.27 243.788)" fill="#D2D1D1"/>
<rect x="1765.51" y="251.079" width="1.86034" height="12.4023" transform="rotate(81.395 1765.51 251.079)" fill="#D2D1D1"/>
<rect x="1766.57" y="258.466" width="1.86034" height="12.4023" transform="rotate(82.9345 1766.57 258.466)" fill="#D2D1D1"/>
<rect x="1767.42" y="265.95" width="1.86034" height="12.4023" transform="rotate(84.4768 1767.42 265.95)" fill="#D2D1D1"/>
<rect x="1767.93" y="271.454" width="1.86034" height="12.4023" transform="rotate(85.8006 1767.93 271.454)" fill="#D2D1D1"/>
<rect x="1768.43" y="279.111" width="1.86034" height="12.4023" transform="rotate(87.3467 1768.43 279.111)" fill="#D2D1D1"/>
<rect x="1768.73" y="286.864" width="1.86034" height="12.4023" transform="rotate(88.8942 1768.73 286.864)" fill="#D2D1D1"/>
<rect x="1768.8" y="295.77" width="1.86034" height="12.4023" transform="rotate(90.6635 1768.8 295.77)" fill="#D2D1D1"/>
<rect x="1768.7" y="301.455" width="1.86034" height="12.4023" transform="rotate(91.9902 1768.7 301.455)" fill="#D2D1D1"/>
<rect x="1768.36" y="309.159" width="1.86034" height="12.4023" transform="rotate(93.537 1768.36 309.159)" fill="#D2D1D1"/>
<rect x="1767.82" y="316.77" width="1.86034" height="12.4023" transform="rotate(95.0821 1767.82 316.77)" fill="#D2D1D1"/>
<rect x="1767.31" y="322.241" width="1.86034" height="12.4023" transform="rotate(96.4049 1767.31 322.241)" fill="#D2D1D1"/>
<rect x="1766.42" y="329.684" width="1.86034" height="12.4023" transform="rotate(97.9456 1766.42 329.684)" fill="#D2D1D1"/>
<rect x="1765.33" y="337.033" width="1.86034" height="12.4023" transform="rotate(99.4833 1765.33 337.033)" fill="#D2D1D1"/>
<rect x="1764.06" y="344.289" width="1.86034" height="12.4023" transform="rotate(101.018 1764.06 344.289)" fill="#D2D1D1"/>
<rect x="1762.6" y="351.451" width="1.86034" height="12.4023" transform="rotate(102.548 1762.6 351.451)" fill="#D2D1D1"/>
<rect x="1760.96" y="358.518" width="1.86034" height="12.4023" transform="rotate(104.075 1760.96 358.518)" fill="#D2D1D1"/>
<rect x="1759.15" y="365.491" width="1.86034" height="12.4023" transform="rotate(105.597 1759.15 365.491)" fill="#D2D1D1"/>
<rect x="1757.16" y="372.368" width="1.86034" height="12.4023" transform="rotate(107.115 1757.16 372.368)" fill="#D2D1D1"/>
<rect x="1755.01" y="379.151" width="1.86034" height="12.4023" transform="rotate(108.628 1755.01 379.151)" fill="#D2D1D1"/>
<rect x="1752.69" y="385.838" width="1.86034" height="12.4023" transform="rotate(110.137 1752.69 385.838)" fill="#D2D1D1"/>
<rect x="1750.2" y="392.43" width="1.86034" height="12.4023" transform="rotate(111.641 1750.2 392.43)" fill="#D2D1D1"/>
<rect x="1747.56" y="398.926" width="1.86034" height="12.4023" transform="rotate(113.141 1747.56 398.926)" fill="#D2D1D1"/>
<rect x="1744.76" y="405.325" width="1.86034" height="12.4023" transform="rotate(114.635 1744.76 405.325)" fill="#D2D1D1"/>
<rect x="1741.81" y="411.628" width="1.86034" height="12.4023" transform="rotate(116.126 1741.81 411.628)" fill="#D2D1D1"/>
<rect x="1738.7" y="417.833" width="1.86034" height="12.4023" transform="rotate(117.612 1738.7 417.833)" fill="#D2D1D1"/>
<rect x="1735.45" y="423.941" width="1.86034" height="12.4023" transform="rotate(119.094 1735.45 423.941)" fill="#D2D1D1"/>
<rect x="1732.05" y="429.949" width="1.86034" height="12.4023" transform="rotate(120.572 1732.05 429.949)" fill="#D2D1D1"/>
<rect x="1728.5" y="435.857" width="1.86034" height="12.4023" transform="rotate(122.047 1728.5 435.857)" fill="#D2D1D1"/>
<rect x="1723.82" y="443.17" width="1.86034" height="12.4023" transform="rotate(123.728 1723.82 443.17)" fill="#D2D1D1"/>
<rect x="1719.96" y="448.837" width="1.86034" height="12.4023" transform="rotate(125.195 1719.96 448.837)" fill="#D2D1D1"/>
<rect x="1715.97" y="454.399" width="1.86034" height="12.4023" transform="rotate(126.66 1715.97 454.399)" fill="#D2D1D1"/>
<rect x="1711.84" y="459.855" width="1.86034" height="12.4023" transform="rotate(128.123 1711.84 459.855)" fill="#D2D1D1"/>
<rect x="1707.57" y="465.204" width="1.86034" height="12.4023" transform="rotate(129.584 1707.57 465.204)" fill="#D2D1D1"/>
<rect x="1703.17" y="470.444" width="1.86034" height="12.4023" transform="rotate(131.043 1703.17 470.444)" fill="#D2D1D1"/>
<rect x="1698.64" y="475.573" width="1.86034" height="12.4023" transform="rotate(132.502 1698.64 475.573)" fill="#D2D1D1"/>
<rect x="1692.81" y="481.806" width="1.86034" height="12.4023" transform="rotate(134.167 1692.81 481.806)" fill="#D2D1D1"/>
<rect x="1688.01" y="486.666" width="1.86034" height="12.4023" transform="rotate(135.625 1688.01 486.666)" fill="#D2D1D1"/>
<rect x="1683.08" y="491.408" width="1.86034" height="12.4023" transform="rotate(137.082 1683.08 491.408)" fill="#D2D1D1"/>
<rect x="1678.02" y="496.031" width="1.86034" height="12.4023" transform="rotate(138.54 1678.02 496.031)" fill="#D2D1D1"/>
<rect x="1672.85" y="500.531" width="1.86034" height="12.4023" transform="rotate(139.999 1672.85 500.531)" fill="#D2D1D1"/>
<rect x="1667.56" y="504.907" width="1.86034" height="12.4023" transform="rotate(141.459 1667.56 504.907)" fill="#D2D1D1"/>
<rect x="1660.88" y="510.109" width="1.86034" height="12.4023" transform="rotate(143.13 1660.88 510.109)" fill="#D2D1D1"/>
<rect x="1655.34" y="514.184" width="1.86034" height="12.4023" transform="rotate(144.595 1655.34 514.184)" fill="#D2D1D1"/>
<rect x="1649.69" y="518.127" width="1.86034" height="12.4023" transform="rotate(146.062 1649.69 518.127)" fill="#D2D1D1"/>
<rect x="1643.93" y="521.934" width="1.86034" height="12.4023" transform="rotate(147.533 1643.93 521.934)" fill="#D2D1D1"/>
<rect x="1638.05" y="525.603" width="1.86034" height="12.4023" transform="rotate(149.006 1638.05 525.603)" fill="#D2D1D1"/>
<rect x="1632.07" y="529.129" width="1.86034" height="12.4023" transform="rotate(150.483 1632.07 529.129)" fill="#D2D1D1"/>
<rect x="1625.98" y="532.51" width="1.86034" height="12.4023" transform="rotate(151.964 1625.98 532.51)" fill="#D2D1D1"/>
<rect x="1619.79" y="535.744" width="1.86034" height="12.4023" transform="rotate(153.449 1619.79 535.744)" fill="#D2D1D1"/>
<rect x="1613.5" y="538.825" width="1.86034" height="12.4023" transform="rotate(154.938 1613.5 538.825)" fill="#D2D1D1"/>
<rect x="1605.82" y="542.312" width="1.86034" height="12.4023" transform="rotate(156.646 1605.82 542.312)" fill="#D2D1D1"/>
<rect x="1599.34" y="545.039" width="1.86034" height="12.4023" transform="rotate(158.144 1599.34 545.039)" fill="#D2D1D1"/>
<rect x="1592.76" y="547.604" width="1.86034" height="12.4023" transform="rotate(159.648 1592.76 547.604)" fill="#D2D1D1"/>
<rect x="1586.1" y="550.005" width="1.86034" height="12.4023" transform="rotate(161.156 1586.1 550.005)" fill="#D2D1D1"/>
<rect x="1579.34" y="552.237" width="1.86034" height="12.4023" transform="rotate(162.669 1579.34 552.237)" fill="#D2D1D1"/>
<rect x="1572.51" y="554.297" width="1.86034" height="12.4023" transform="rotate(164.186 1572.51 554.297)" fill="#D2D1D1"/>
<rect x="1565.6" y="556.182" width="1.86034" height="12.4023" transform="rotate(165.707 1565.6 556.182)" fill="#D2D1D1"/>
<rect x="1559.83" y="557.607" width="1.86034" height="12.4023" transform="rotate(167.015 1559.83 557.607)" fill="#D2D1D1"/>
<rect x="1552.76" y="559.17" width="1.86034" height="12.4023" transform="rotate(168.545 1552.76 559.17)" fill="#D2D1D1"/>
<rect x="1545.61" y="560.547" width="1.86034" height="12.4023" transform="rotate(170.078 1545.61 560.547)" fill="#D2D1D1"/>
<rect x="1538.41" y="561.736" width="1.86034" height="12.4023" transform="rotate(171.615 1538.41 561.736)" fill="#D2D1D1"/>
<rect x="1531.15" y="562.734" width="1.86034" height="12.4023" transform="rotate(173.155 1531.15 562.734)" fill="#D2D1D1"/>
<rect x="1523.83" y="563.538" width="1.86034" height="12.4023" transform="rotate(174.697 1523.83 563.538)" fill="#D2D1D1"/>
<rect x="1517.6" y="564.067" width="1.86034" height="12.4023" transform="rotate(176.021 1517.6 564.067)" fill="#D2D1D1"/>
<rect x="1510.17" y="564.509" width="1.86034" height="12.4023" transform="rotate(177.568 1510.17 564.509)" fill="#D2D1D1"/>
<rect x="1502.71" y="564.751" width="1.86034" height="12.4023" transform="rotate(179.115 1502.71 564.751)" fill="#D2D1D1"/>
<path d="M0 460C0 460 520.669 459.03 593 457.191C1082.5 457.191 1627 457.191 1920 0V605H0V460Z" fill="url(#paint0_linear_930_3259)"/>
<defs>
<linearGradient id="paint0_linear_930_3259" x1="270.374" y1="443.352" x2="1920" y2="443.352" gradientUnits="userSpaceOnUse">
<stop stop-color="#B7141E"/>
<stop offset="1" stop-color="#FF0000"/>
</linearGradient>
</defs>
</svg>
