<svg width="13" height="18" viewBox="0 0 13 18" fill="none" xmlns="http://www.w3.org/2000/svg">
<g id="mdi:fire" clip-path="url(#clip0_559_3036)">
<path id="Vector" d="M11.7845 8.1857C11.5759 7.89274 11.3219 7.63883 11.0861 7.38493C10.4784 6.799 9.78911 6.37908 9.20864 5.76385C7.85725 4.33809 7.55795 1.9846 8.41957 0.177979C7.55795 0.402585 6.80516 0.910392 6.1612 1.46703C3.81213 3.49825 2.88702 7.0822 3.99353 10.1583C4.02981 10.256 4.06609 10.3536 4.06609 10.4806C4.06609 10.6954 3.93004 10.8907 3.74864 10.9689C3.54004 11.0665 3.32237 11.0079 3.15004 10.8517C3.09826 10.8056 3.05515 10.7492 3.02306 10.6857C1.99818 9.28921 1.83492 7.28727 2.52423 5.68573C1.00957 7.01384 0.184225 9.25991 0.302132 11.379C0.356551 11.8673 0.410969 12.3556 0.565155 12.8439C0.692132 13.4298 0.937016 14.0157 1.20911 14.5333C2.18864 16.2227 3.88469 17.4336 5.70771 17.6778C7.64864 17.9415 9.72562 17.5606 11.2131 16.1153C12.8728 14.4942 13.4533 11.8966 12.6007 9.67006L12.4828 9.41616C12.2924 8.96694 11.7845 8.1857 11.7845 8.1857ZM8.91841 14.338C8.66446 14.5723 8.24725 14.8263 7.92074 14.9239C6.90492 15.3145 5.88911 14.7677 5.2905 14.1231C6.36981 13.8497 7.01376 12.9903 7.20423 12.1212C7.35841 11.34 7.06818 10.6954 6.95027 9.94349C6.84144 9.22085 6.85957 8.60562 7.10446 7.9318C7.27678 8.30289 7.45818 8.67398 7.67585 8.96694C8.37423 9.94349 9.47167 10.3732 9.70748 11.7013C9.74376 11.838 9.7619 11.9747 9.7619 12.1212C9.78911 12.922 9.4626 13.8009 8.91841 14.338Z" fill="#F43B3B"/>
</g>
<defs>
<clipPath id="clip0_559_3036">
<rect width="13" height="18" fill="white"/>
</clipPath>
</defs>
</svg>
