<svg width="18" height="18" viewBox="0 0 18 18" fill="none" xmlns="http://www.w3.org/2000/svg">
<g id="entypo:new" clip-path="url(#clip0_559_3041)">
<path id="Vector" d="M16.8213 11.1097L15.267 9.72546C14.817 9.32496 14.817 8.66886 15.267 8.26836L16.8213 6.88326C17.2713 6.48276 17.1516 6.11016 16.5549 6.05166L14.4939 5.85636C13.8981 5.80056 13.5759 5.28666 13.782 4.71696L14.8755 1.67226C15.0807 1.10076 14.8296 0.893757 14.3184 1.20966L11.8875 2.71266C11.7671 2.7881 11.6326 2.83812 11.4921 2.85965C11.3517 2.88118 11.2083 2.87377 11.0708 2.83786C10.9333 2.80195 10.8046 2.73831 10.6927 2.65085C10.5807 2.56338 10.4878 2.45395 10.4196 2.32926L9.53943 0.757857C9.24333 0.228657 8.75463 0.226857 8.45313 0.750657L7.63503 2.17266C7.33173 2.69916 6.63783 2.92236 6.09333 2.67306L4.65333 2.01246C4.10613 1.76046 3.68762 2.05026 3.72003 2.65686L3.79743 4.11036C3.83072 4.71696 3.38252 5.34066 2.80383 5.49726L1.41333 5.86986C0.835525 6.02646 0.729325 6.48186 1.17932 6.88236L2.73362 8.26746C3.18362 8.66796 3.18362 9.32406 2.73362 9.72456L1.17932 11.1097C0.729325 11.5102 0.848125 11.899 1.44303 11.971L3.32853 12.1996C3.92342 12.2716 4.25462 12.8026 4.06472 13.3795L3.09812 16.3117C2.90823 16.8886 3.17913 17.1118 3.69933 16.8112L5.91603 15.5278C6.17463 15.3846 6.47731 15.3428 6.76502 15.4107C7.05272 15.4786 7.30482 15.6512 7.47213 15.895L8.39193 17.2801C8.72673 17.7832 9.22983 17.7562 9.50793 17.2189L10.317 15.6592C10.4517 15.4004 10.6822 15.2045 10.9592 15.1132C11.2363 15.0219 11.5381 15.0424 11.8002 15.1705L13.3608 15.9508C13.899 16.2181 14.3121 15.9418 14.2797 15.337L14.2014 13.8817C14.1699 13.2751 14.6163 12.6532 15.1968 12.4966L16.5855 12.1222C17.1651 11.9656 17.2713 11.5102 16.8213 11.1097ZM9.90033 12.6001H8.10033V10.8001H9.90033V12.6001ZM9.90033 9.90006H8.10033V5.40006H9.90033V9.90006Z" fill="#F43B3B"/>
</g>
<defs>
<clipPath id="clip0_559_3041">
<rect width="18" height="18" fill="white"/>
</clipPath>
</defs>
</svg>
