<svg width="27" height="11" viewBox="0 0 27 11" fill="none" xmlns="http://www.w3.org/2000/svg">
<path d="M0.12 11L4.8 0.499999H7.2L11.895 11H9.345L5.505 1.73H6.465L2.61 11H0.12ZM2.46 8.75L3.105 6.905H8.505L9.165 8.75H2.46ZM12.4109 7.715V5.84H16.6559V7.715H12.4109ZM24.3847 11V7.685L24.9847 8.21H22.1047C21.1947 8.21 20.4097 8.06 19.7497 7.76C19.0897 7.46 18.5847 7.025 18.2347 6.455C17.8847 5.885 17.7097 5.205 17.7097 4.415C17.7097 3.595 17.8947 2.895 18.2647 2.315C18.6447 1.725 19.1747 1.275 19.8547 0.965C20.5347 0.654999 21.3347 0.499999 22.2547 0.499999H26.7847V11H24.3847ZM17.7397 11L20.3497 7.235H22.8097L20.3047 11H17.7397ZM24.3847 6.905V1.85L24.9847 2.48H22.3147C21.6247 2.48 21.0947 2.64 20.7247 2.96C20.3647 3.28 20.1847 3.755 20.1847 4.385C20.1847 4.995 20.3597 5.465 20.7097 5.795C21.0597 6.125 21.5747 6.29 22.2547 6.29H24.9847L24.3847 6.905Z" fill="#F43B3B"/>
</svg>
